<svg xmlns="http://www.w3.org/2000/svg" width="2560" height="1440">
  <path d="M1314,645.6L1599.3,675.1L1385.5,483.5Z" fill="rgb(163,131,60)" shape-rendering="crispEdges"/>
  <path d="M1599.3,675.1L1602.8,471.5L1385.5,483.5Z" fill="rgb(163,131,60)" shape-rendering="crispEdges"/>
  <path d="M1602.8,471.5L1493.9,271.4L1385.5,483.5Z" fill="rgb(171,137,58)" shape-rendering="crispEdges"/>
  <path d="M1314,645.6L1589.4,946.8L1599.3,675.1Z" fill="rgb(153,125,63)" shape-rendering="crispEdges"/>
  <path d="M1589.4,946.8L1825.2,662.5L1599.3,675.1Z" fill="rgb(148,121,65)" shape-rendering="crispEdges"/>
  <path d="M1599.3,675.1L1825.2,662.5L1602.8,471.5Z" fill="rgb(156,126,63)" shape-rendering="crispEdges"/>
  <path d="M1602.8,471.5L1622.5,125.8L1493.9,271.4Z" fill="rgb(175,139,56)" shape-rendering="crispEdges"/>
  <path d="M1493.9,271.4L1220,294.4L1385.5,483.5Z" fill="rgb(178,141,55)" shape-rendering="crispEdges"/>
  <path d="M1096.5,407.7L1059.1,632.3L1314,645.6Z" fill="rgb(173,138,57)" shape-rendering="crispEdges"/>
  <path d="M1059.1,632.3L1205.9,924.9L1314,645.6Z" fill="rgb(163,131,60)" shape-rendering="crispEdges"/>
  <path d="M1314,645.6L1349.7,1039.7L1589.4,946.8Z" fill="rgb(149,122,65)" shape-rendering="crispEdges"/>
  <path d="M1096.5,407.7L1314,645.6L1385.5,483.5Z" fill="rgb(172,138,57)" shape-rendering="crispEdges"/>
  <path d="M1220,294.4L1096.5,407.7L1385.5,483.5Z" fill="rgb(179,142,54)" shape-rendering="crispEdges"/>
  <path d="M1205.9,924.9L1349.7,1039.7L1314,645.6Z" fill="rgb(153,125,63)" shape-rendering="crispEdges"/>
  <path d="M1825.2,662.5L1910.8,442.7L1602.8,471.5Z" fill="rgb(157,127,62)" shape-rendering="crispEdges"/>
  <path d="M1910.8,442.7L1622.5,125.8L1602.8,471.5Z" fill="rgb(168,135,59)" shape-rendering="crispEdges"/>
  <path d="M1493.9,271.4L1468.4,9.1L1220,294.4Z" fill="rgb(185,146,52)" shape-rendering="crispEdges"/>
  <path d="M827.9,185.4L925.9,474.7L1096.5,407.7Z" fill="rgb(190,149,50)" shape-rendering="crispEdges"/>
  <path d="M1096.5,407.7L925.9,474.7L1059.1,632.3Z" fill="rgb(180,142,54)" shape-rendering="crispEdges"/>
  <path d="M1059.1,632.3L902.2,777.7L1205.9,924.9Z" fill="rgb(165,132,60)" shape-rendering="crispEdges"/>
  <path d="M925.9,474.7L902.2,777.7L1059.1,632.3Z" fill="rgb(175,139,56)" shape-rendering="crispEdges"/>
  <path d="M1101.5,1312.9L1465.7,1212.4L1349.7,1039.7Z" fill="rgb(136,114,68)" shape-rendering="crispEdges"/>
  <path d="M1608,1247.4L1871.9,1030.9L1589.4,946.8Z" fill="rgb(131,110,69)" shape-rendering="crispEdges"/>
  <path d="M1589.4,946.8L1871.9,1030.9L1825.2,662.5Z" fill="rgb(139,116,67)" shape-rendering="crispEdges"/>
  <path d="M1825.2,662.5L2066.3,726.5L1910.8,442.7Z" fill="rgb(148,121,65)" shape-rendering="crispEdges"/>
  <path d="M1101.5,1312.9L1349.7,1039.7L1205.9,924.9Z" fill="rgb(144,119,66)" shape-rendering="crispEdges"/>
  <path d="M1349.7,1039.7L1465.7,1212.4L1589.4,946.8Z" fill="rgb(138,115,67)" shape-rendering="crispEdges"/>
  <path d="M1622.5,125.8L1468.4,9.1L1493.9,271.4Z" fill="rgb(184,145,52)" shape-rendering="crispEdges"/>
  <path d="M1220,294.4L827.9,185.4L1096.5,407.7Z" fill="rgb(190,149,50)" shape-rendering="crispEdges"/>
  <path d="M1871.9,1030.9L2066.3,726.5L1825.2,662.5Z" fill="rgb(138,115,67)" shape-rendering="crispEdges"/>
  <path d="M1465.7,1212.4L1608,1247.4L1589.4,946.8Z" fill="rgb(132,111,69)" shape-rendering="crispEdges"/>
  <path d="M1976,129.5L1682.8,-2.6L1622.5,125.8Z" fill="rgb(180,143,54)" shape-rendering="crispEdges"/>
  <path d="M1622.5,125.8L1682.8,-2.6L1468.4,9.1Z" fill="rgb(187,147,51)" shape-rendering="crispEdges"/>
  <path d="M1976,129.5L1622.5,125.8L1910.8,442.7Z" fill="rgb(170,136,58)" shape-rendering="crispEdges"/>
  <path d="M2235.1,206.1L1976,129.5L1910.8,442.7Z" fill="rgb(163,131,60)" shape-rendering="crispEdges"/>
  <path d="M729.7,689.6L810.3,922.9L902.2,777.7Z" fill="rgb(171,136,58)" shape-rendering="crispEdges"/>
  <path d="M902.2,777.7L810.3,922.9L1205.9,924.9Z" fill="rgb(162,131,61)" shape-rendering="crispEdges"/>
  <path d="M925.9,474.7L729.7,689.6L902.2,777.7Z" fill="rgb(178,141,55)" shape-rendering="crispEdges"/>
  <path d="M2405.5,643.8L2208.8,543.3L2066.3,726.5Z" fill="rgb(138,115,67)" shape-rendering="crispEdges"/>
  <path d="M2066.3,726.5L2208.8,543.3L1910.8,442.7Z" fill="rgb(146,120,65)" shape-rendering="crispEdges"/>
  <path d="M1371.4,-220.3L1187.3,-86.9L1468.4,9.1Z" fill="rgb(197,154,46)" shape-rendering="crispEdges"/>
  <path d="M1468.4,9.1L1187.3,-86.9L1220,294.4Z" fill="rgb(195,152,48)" shape-rendering="crispEdges"/>
  <path d="M925.9,474.7L667.7,520.4L729.7,689.6Z" fill="rgb(184,145,52)" shape-rendering="crispEdges"/>
  <path d="M892.8,-57.6L827.9,185.4L1220,294.4Z" fill="rgb(200,156,45)" shape-rendering="crispEdges"/>
  <path d="M2196.9,-95.6L1948.6,9L1976,129.5Z" fill="rgb(176,140,56)" shape-rendering="crispEdges"/>
  <path d="M1976,129.5L1948.6,9L1682.8,-2.6Z" fill="rgb(179,142,55)" shape-rendering="crispEdges"/>
  <path d="M1674.5,-247.6L1371.4,-220.3L1468.4,9.1Z" fill="rgb(192,151,49)" shape-rendering="crispEdges"/>
  <path d="M953.4,1267L1101.5,1312.9L1205.9,924.9Z" fill="rgb(144,119,66)" shape-rendering="crispEdges"/>
  <path d="M1465.7,1212.4L1503.5,1512.5L1608,1247.4Z" fill="rgb(123,105,71)" shape-rendering="crispEdges"/>
  <path d="M1608,1247.4L1911.4,1268.2L1871.9,1030.9Z" fill="rgb(122,105,71)" shape-rendering="crispEdges"/>
  <path d="M1871.9,1030.9L2179.3,1048.5L2066.3,726.5Z" fill="rgb(128,109,70)" shape-rendering="crispEdges"/>
  <path d="M1851.9,1490.9L1911.4,1268.2L1608,1247.4Z" fill="rgb(114,100,72)" shape-rendering="crispEdges"/>
  <path d="M827.9,185.4L667.7,520.4L925.9,474.7Z" fill="rgb(192,151,49)" shape-rendering="crispEdges"/>
  <path d="M729.7,689.6L569.2,888.1L810.3,922.9Z" fill="rgb(172,137,57)" shape-rendering="crispEdges"/>
  <path d="M810.3,922.9L953.4,1267L1205.9,924.9Z" fill="rgb(153,125,63)" shape-rendering="crispEdges"/>
  <path d="M1674.5,-247.6L1468.4,9.1L1682.8,-2.6Z" fill="rgb(189,149,50)" shape-rendering="crispEdges"/>
  <path d="M1911.4,1268.2L2179.3,1048.5L1871.9,1030.9Z" fill="rgb(120,104,71)" shape-rendering="crispEdges"/>
  <path d="M2208.8,543.3L2235.1,206.1L1910.8,442.7Z" fill="rgb(153,125,63)" shape-rendering="crispEdges"/>
  <path d="M2439.3,397.8L2235.1,206.1L2208.8,543.3Z" fill="rgb(149,122,64)" shape-rendering="crispEdges"/>
  <path d="M1187.3,-86.9L892.8,-57.6L1220,294.4Z" fill="rgb(202,157,44)" shape-rendering="crispEdges"/>
  <path d="M827.9,185.4L594.7,191.6L667.7,520.4Z" fill="rgb(200,156,45)" shape-rendering="crispEdges"/>
  <path d="M1100,-264.6L892.8,-57.6L1187.3,-86.9Z" fill="rgb(205,160,42)" shape-rendering="crispEdges"/>
  <path d="M1870.1,-192.6L1682.8,-2.6L1948.6,9Z" fill="rgb(183,144,53)" shape-rendering="crispEdges"/>
  <path d="M1870.1,-192.6L1674.5,-247.6L1682.8,-2.6Z" fill="rgb(185,146,52)" shape-rendering="crispEdges"/>
  <path d="M1198.1,1475.7L1465.7,1212.4L1101.5,1312.9Z" fill="rgb(130,110,69)" shape-rendering="crispEdges"/>
  <path d="M1198.1,1475.7L1503.5,1512.5L1465.7,1212.4Z" fill="rgb(123,105,71)" shape-rendering="crispEdges"/>
  <path d="M993.4,1562.4L1198.1,1475.7L1101.5,1312.9Z" fill="rgb(129,109,69)" shape-rendering="crispEdges"/>
  <path d="M2073.2,-290.9L1870.1,-192.6L1948.6,9Z" fill="rgb(179,142,55)" shape-rendering="crispEdges"/>
  <path d="M1911.4,1268.2L2096.4,1288.8L2179.3,1048.5Z" fill="rgb(113,99,73)" shape-rendering="crispEdges"/>
  <path d="M1851.9,1490.9L2096.4,1288.8L1911.4,1268.2Z" fill="rgb(109,97,73)" shape-rendering="crispEdges"/>
  <path d="M365.9,717.5L569.2,888.1L729.7,689.6Z" fill="rgb(180,143,54)" shape-rendering="crispEdges"/>
  <path d="M810.3,922.9L654.5,1140.3L953.4,1267Z" fill="rgb(155,126,63)" shape-rendering="crispEdges"/>
  <path d="M2428.1,1051.5L2405.5,643.8L2179.3,1048.5Z" fill="rgb(120,104,71)" shape-rendering="crispEdges"/>
  <path d="M2179.3,1048.5L2405.5,643.8L2066.3,726.5Z" fill="rgb(129,109,69)" shape-rendering="crispEdges"/>
  <path d="M1674.5,-247.6L1100,-264.6L1371.4,-220.3Z" fill="rgb(196,153,47)" shape-rendering="crispEdges"/>
  <path d="M1371.4,-220.3L1100,-264.6L1187.3,-86.9Z" fill="rgb(201,156,44)" shape-rendering="crispEdges"/>
  <path d="M1637.7,1568L1851.9,1490.9L1608,1247.4Z" fill="rgb(112,98,73)" shape-rendering="crispEdges"/>
  <path d="M569.2,888.1L654.5,1140.3L810.3,922.9Z" fill="rgb(165,133,60)" shape-rendering="crispEdges"/>
  <path d="M953.4,1267L993.4,1562.4L1101.5,1312.9Z" fill="rgb(135,113,68)" shape-rendering="crispEdges"/>
  <path d="M699.8,-45.8L594.7,191.6L827.9,185.4Z" fill="rgb(210,163,39)" shape-rendering="crispEdges"/>
  <path d="M365.9,717.5L442.5,982.8L569.2,888.1Z" fill="rgb(178,141,55)" shape-rendering="crispEdges"/>
  <path d="M699.8,-45.8L827.9,185.4L892.8,-57.6Z" fill="rgb(211,164,38)" shape-rendering="crispEdges"/>
  <path d="M1626.8,1756.3L1637.7,1568L1503.5,1512.5Z" fill="rgb(115,100,72)" shape-rendering="crispEdges"/>
  <path d="M1503.5,1512.5L1637.7,1568L1608,1247.4Z" fill="rgb(115,100,72)" shape-rendering="crispEdges"/>
  <path d="M2439.3,397.8L2340.2,143.6L2235.1,206.1Z" fill="rgb(155,126,63)" shape-rendering="crispEdges"/>
  <path d="M2235.1,206.1L2196.9,-95.6L1976,129.5Z" fill="rgb(169,136,58)" shape-rendering="crispEdges"/>
  <path d="M2405.5,643.8L2439.3,397.8L2208.8,543.3Z" fill="rgb(140,116,67)" shape-rendering="crispEdges"/>
  <path d="M937,-317.7L699.8,-45.8L892.8,-57.6Z" fill="rgb(212,164,37)" shape-rendering="crispEdges"/>
  <path d="M2340.2,143.6L2196.9,-95.6L2235.1,206.1Z" fill="rgb(166,133,59)" shape-rendering="crispEdges"/>
  <path d="M2479.1,1494.2L2356.4,1151L2096.4,1288.8Z" fill="rgb(100,91,75)" shape-rendering="crispEdges"/>
  <path d="M2096.4,1288.8L2356.4,1151L2179.3,1048.5Z" fill="rgb(111,98,73)" shape-rendering="crispEdges"/>
  <path d="M2405.5,643.8L2634.9,437.7L2439.3,397.8Z" fill="rgb(138,115,67)" shape-rendering="crispEdges"/>
  <path d="M491.1,-109.2L498,204.5L594.7,191.6Z" fill="rgb(216,167,34)" shape-rendering="crispEdges"/>
  <path d="M594.7,191.6L498,204.5L667.7,520.4Z" fill="rgb(203,158,43)" shape-rendering="crispEdges"/>
  <path d="M662.4,1443.7L993.4,1562.4L953.4,1267Z" fill="rgb(137,114,68)" shape-rendering="crispEdges"/>
  <path d="M1332.1,1778.5L1626.8,1756.3L1503.5,1512.5Z" fill="rgb(118,102,72)" shape-rendering="crispEdges"/>
  <path d="M2356.4,1151L2428.1,1051.5L2179.3,1048.5Z" fill="rgb(112,99,73)" shape-rendering="crispEdges"/>
  <path d="M1100,-264.6L937,-317.7L892.8,-57.6Z" fill="rgb(208,161,40)" shape-rendering="crispEdges"/>
  <path d="M1674.5,-247.6L937,-317.7L1100,-264.6Z" fill="rgb(200,156,45)" shape-rendering="crispEdges"/>
  <path d="M365.9,717.5L729.7,689.6L667.7,520.4Z" fill="rgb(186,146,52)" shape-rendering="crispEdges"/>
  <path d="M569.2,888.1L442.5,982.8L654.5,1140.3Z" fill="rgb(168,134,59)" shape-rendering="crispEdges"/>
  <path d="M654.5,1140.3L662.4,1443.7L953.4,1267Z" fill="rgb(147,121,65)" shape-rendering="crispEdges"/>
  <path d="M2196.9,-95.6L2073.2,-290.9L1948.6,9Z" fill="rgb(175,140,56)" shape-rendering="crispEdges"/>
  <path d="M1870.1,-192.6L2073.2,-290.9L1674.5,-247.6Z" fill="rgb(181,143,54)" shape-rendering="crispEdges"/>
  <path d="M1674.5,-247.6L2073.2,-290.9L937,-317.7Z" fill="rgb(191,150,50)" shape-rendering="crispEdges"/>
  <path d="M346.7,373.8L365.9,717.5L667.7,520.4Z" fill="rgb(195,152,47)" shape-rendering="crispEdges"/>
  <path d="M1637.7,1568L1850.4,1657L1851.9,1490.9Z" fill="rgb(109,97,73)" shape-rendering="crispEdges"/>
  <path d="M1851.9,1490.9L2186.2,1553.3L2096.4,1288.8Z" fill="rgb(101,92,75)" shape-rendering="crispEdges"/>
  <path d="M1626.8,1756.3L1850.4,1657L1637.7,1568Z" fill="rgb(111,98,73)" shape-rendering="crispEdges"/>
  <path d="M2718,719.7L2921.4,909.5L2886.2,771.1Z" fill="rgb(120,103,71)" shape-rendering="crispEdges"/>
  <path d="M2428.1,1051.5L2564.7,871.3L2405.5,643.8Z" fill="rgb(119,103,71)" shape-rendering="crispEdges"/>
  <path d="M137.5,283.8L346.7,373.8L498,204.5Z" fill="rgb(212,164,37)" shape-rendering="crispEdges"/>
  <path d="M498,204.5L346.7,373.8L667.7,520.4Z" fill="rgb(203,158,43)" shape-rendering="crispEdges"/>
  <path d="M383.6,1165.7L662.4,1443.7L654.5,1140.3Z" fill="rgb(155,126,63)" shape-rendering="crispEdges"/>
  <path d="M1332.1,1778.5L1503.5,1512.5L1198.1,1475.7Z" fill="rgb(122,105,71)" shape-rendering="crispEdges"/>
  <path d="M1176.4,1808.5L1198.1,1475.7L993.4,1562.4Z" fill="rgb(128,109,70)" shape-rendering="crispEdges"/>
  <path d="M1176.4,1808.5L1332.1,1778.5L1198.1,1475.7Z" fill="rgb(125,107,70)" shape-rendering="crispEdges"/>
  <path d="M2151.3,1666.6L2186.2,1553.3L1851.9,1490.9Z" fill="rgb(100,92,75)" shape-rendering="crispEdges"/>
  <path d="M2356.4,1151L2681.3,1220.1L2428.1,1051.5Z" fill="rgb(104,94,74)" shape-rendering="crispEdges"/>
  <path d="M2151.3,1666.6L1851.9,1490.9L1850.4,1657Z" fill="rgb(104,94,74)" shape-rendering="crispEdges"/>
  <path d="M2718,719.7L2634.9,437.7L2405.5,643.8Z" fill="rgb(130,110,69)" shape-rendering="crispEdges"/>
  <path d="M2684.3,232.4L2489.4,-5.9L2340.2,143.6Z" fill="rgb(156,127,62)" shape-rendering="crispEdges"/>
  <path d="M2340.2,143.6L2489.4,-5.9L2196.9,-95.6Z" fill="rgb(167,134,59)" shape-rendering="crispEdges"/>
  <path d="M2196.9,-95.6L2410.4,-343.2L2073.2,-290.9Z" fill="rgb(171,137,58)" shape-rendering="crispEdges"/>
  <path d="M2684.3,232.4L2340.2,143.6L2439.3,397.8Z" fill="rgb(150,123,64)" shape-rendering="crispEdges"/>
  <path d="M560.6,-288.5L491.1,-109.2L699.8,-45.8Z" fill="rgb(220,169,31)" shape-rendering="crispEdges"/>
  <path d="M699.8,-45.8L491.1,-109.2L594.7,191.6Z" fill="rgb(219,168,32)" shape-rendering="crispEdges"/>
  <path d="M442.5,982.8L383.6,1165.7L654.5,1140.3Z" fill="rgb(165,132,60)" shape-rendering="crispEdges"/>
  <path d="M212.1,880.3L383.6,1165.7L442.5,982.8Z" fill="rgb(173,138,57)" shape-rendering="crispEdges"/>
  <path d="M212.1,880.3L442.5,982.8L365.9,717.5Z" fill="rgb(181,143,54)" shape-rendering="crispEdges"/>
  <path d="M564.5,1733L840.2,1670.2L662.4,1443.7Z" fill="rgb(141,117,67)" shape-rendering="crispEdges"/>
  <path d="M662.4,1443.7L840.2,1670.2L993.4,1562.4Z" fill="rgb(137,114,68)" shape-rendering="crispEdges"/>
  <path d="M840.2,1670.2L1176.4,1808.5L993.4,1562.4Z" fill="rgb(132,111,69)" shape-rendering="crispEdges"/>
  <path d="M1332.1,1778.5L1176.4,1808.5L1626.8,1756.3Z" fill="rgb(121,104,71)" shape-rendering="crispEdges"/>
  <path d="M1626.8,1756.3L2151.3,1666.6L1850.4,1657Z" fill="rgb(106,95,74)" shape-rendering="crispEdges"/>
  <path d="M2681.3,1220.1L2564.7,871.3L2428.1,1051.5Z" fill="rgb(106,95,74)" shape-rendering="crispEdges"/>
  <path d="M2479.1,1494.2L2096.4,1288.8L2186.2,1553.3Z" fill="rgb(95,88,76)" shape-rendering="crispEdges"/>
  <path d="M2564.7,871.3L2718,719.7L2405.5,643.8Z" fill="rgb(122,105,71)" shape-rendering="crispEdges"/>
  <path d="M937,-317.7L560.6,-288.5L699.8,-45.8Z" fill="rgb(215,166,35)" shape-rendering="crispEdges"/>
  <path d="M152.3,622.1L212.1,880.3L365.9,717.5Z" fill="rgb(191,150,50)" shape-rendering="crispEdges"/>
  <path d="M2945.8,284.2L2684.3,232.4L2634.9,437.7Z" fill="rgb(145,119,66)" shape-rendering="crispEdges"/>
  <path d="M2634.9,437.7L2684.3,232.4L2439.3,397.8Z" fill="rgb(143,118,66)" shape-rendering="crispEdges"/>
  <path d="M346.7,373.8L152.3,622.1L365.9,717.5Z" fill="rgb(198,155,46)" shape-rendering="crispEdges"/>
  <path d="M62.8,391.2L152.3,622.1L346.7,373.8Z" fill="rgb(207,161,41)" shape-rendering="crispEdges"/>
  <path d="M137.5,283.8L498,204.5L162,-53.2Z" fill="rgb(221,170,29)" shape-rendering="crispEdges"/>
  <path d="M2387.4,1738.8L2479.1,1494.2L2186.2,1553.3Z" fill="rgb(92,87,76)" shape-rendering="crispEdges"/>
  <path d="M2713,-230.6L2410.4,-343.2L2489.4,-5.9Z" fill="rgb(162,131,61)" shape-rendering="crispEdges"/>
  <path d="M2489.4,-5.9L2410.4,-343.2L2196.9,-95.6Z" fill="rgb(167,134,59)" shape-rendering="crispEdges"/>
  <path d="M2073.2,-290.9L2410.4,-343.2L937,-317.7Z" fill="rgb(183,145,53)" shape-rendering="crispEdges"/>
  <path d="M2479.1,1494.2L2681.3,1220.1L2356.4,1151Z" fill="rgb(95,89,76)" shape-rendering="crispEdges"/>
  <path d="M162,-53.2L498,204.5L491.1,-109.2Z" fill="rgb(225,173,26)" shape-rendering="crispEdges"/>
  <path d="M383.6,1165.7L411,1532.7L662.4,1443.7Z" fill="rgb(150,123,64)" shape-rendering="crispEdges"/>
  <path d="M840.2,1670.2L564.5,1733L1176.4,1808.5Z" fill="rgb(136,114,68)" shape-rendering="crispEdges"/>
  <path d="M167.2,1240.7L411,1532.7L383.6,1165.7Z" fill="rgb(158,128,62)" shape-rendering="crispEdges"/>
  <path d="M2684.3,232.4L2690.8,-83L2489.4,-5.9Z" fill="rgb(159,128,62)" shape-rendering="crispEdges"/>
  <path d="M3000.9,53.2L2690.8,-83L2684.3,232.4Z" fill="rgb(158,128,62)" shape-rendering="crispEdges"/>
  <path d="M137.5,283.8L62.8,391.2L346.7,373.8Z" fill="rgb(213,165,36)" shape-rendering="crispEdges"/>
  <path d="M-83.8,977.3L167.2,1240.7L212.1,880.3Z" fill="rgb(180,142,54)" shape-rendering="crispEdges"/>
  <path d="M212.1,880.3L167.2,1240.7L383.6,1165.7Z" fill="rgb(172,137,57)" shape-rendering="crispEdges"/>
  <path d="M2921.4,909.5L2718,719.7L2564.7,871.3Z" fill="rgb(118,102,72)" shape-rendering="crispEdges"/>
  <path d="M2718,719.7L2915.9,566.7L2634.9,437.7Z" fill="rgb(131,111,69)" shape-rendering="crispEdges"/>
  <path d="M411,1532.7L564.5,1733L662.4,1443.7Z" fill="rgb(145,120,66)" shape-rendering="crispEdges"/>
  <path d="M-83.8,977.3L212.1,880.3L-122.7,815.6Z" fill="rgb(190,149,50)" shape-rendering="crispEdges"/>
  <path d="M411,1532.7L450.9,1785.5L564.5,1733Z" fill="rgb(147,121,65)" shape-rendering="crispEdges"/>
  <path d="M937,-317.7L371.4,-347.1L560.6,-288.5Z" fill="rgb(218,168,32)" shape-rendering="crispEdges"/>
  <path d="M560.6,-288.5L371.4,-347.1L491.1,-109.2Z" fill="rgb(223,171,28)" shape-rendering="crispEdges"/>
  <path d="M-47.5,284.2L-12.4,409.4L62.8,391.2Z" fill="rgb(218,168,33)" shape-rendering="crispEdges"/>
  <path d="M2410.4,-343.2L371.4,-347.1L937,-317.7Z" fill="rgb(200,156,45)" shape-rendering="crispEdges"/>
  <path d="M2886.2,771.1L2915.9,566.7L2718,719.7Z" fill="rgb(126,107,70)" shape-rendering="crispEdges"/>
  <path d="M2151.3,1666.6L2387.4,1738.8L2186.2,1553.3Z" fill="rgb(95,89,76)" shape-rendering="crispEdges"/>
  <path d="M2479.1,1494.2L2646.2,1528.6L2681.3,1220.1Z" fill="rgb(86,84,77)" shape-rendering="crispEdges"/>
  <path d="M1626.8,1756.3L2387.4,1738.8L2151.3,1666.6Z" fill="rgb(101,92,75)" shape-rendering="crispEdges"/>
  <path d="M2614.2,1803.2L2387.4,1738.8L1626.8,1756.3Z" fill="rgb(96,89,75)" shape-rendering="crispEdges"/>
  <path d="M371.4,-347.1L162,-53.2L491.1,-109.2Z" fill="rgb(227,174,24)" shape-rendering="crispEdges"/>
  <path d="M-47.5,284.2L62.8,391.2L137.5,283.8Z" fill="rgb(218,168,32)" shape-rendering="crispEdges"/>
  <path d="M62.8,391.2L-12.4,409.4L152.3,622.1Z" fill="rgb(210,163,39)" shape-rendering="crispEdges"/>
  <path d="M2871.7,1143L2921.4,909.5L2564.7,871.3Z" fill="rgb(110,98,73)" shape-rendering="crispEdges"/>
  <path d="M2886.2,771.1L2921.4,909.5L2915.9,566.7Z" fill="rgb(122,105,71)" shape-rendering="crispEdges"/>
  <path d="M2871.7,1143L2564.7,871.3L2681.3,1220.1Z" fill="rgb(105,94,74)" shape-rendering="crispEdges"/>
  <path d="M2387.4,1738.8L2646.2,1528.6L2479.1,1494.2Z" fill="rgb(87,84,77)" shape-rendering="crispEdges"/>
  <path d="M2966.8,1396.8L2871.7,1143L2681.3,1220.1Z" fill="rgb(95,89,76)" shape-rendering="crispEdges"/>
  <path d="M2690.8,-83L2713,-230.6L2489.4,-5.9Z" fill="rgb(161,130,61)" shape-rendering="crispEdges"/>
  <path d="M2860.3,-276.5L2713,-230.6L2690.8,-83Z" fill="rgb(161,130,61)" shape-rendering="crispEdges"/>
  <path d="M3000.9,53.2L2945.8,284.2L2915.9,566.7Z" fill="rgb(146,120,65)" shape-rendering="crispEdges"/>
  <path d="M2915.9,566.7L2945.8,284.2L2634.9,437.7Z" fill="rgb(139,116,67)" shape-rendering="crispEdges"/>
  <path d="M162,-53.2L-47.5,284.2L137.5,283.8Z" fill="rgb(225,173,25)" shape-rendering="crispEdges"/>
  <path d="M-24.5,1249.8L152.6,1486.9L167.2,1240.7Z" fill="rgb(164,132,60)" shape-rendering="crispEdges"/>
  <path d="M159.8,1636.5L450.9,1785.5L411,1532.7Z" fill="rgb(151,124,64)" shape-rendering="crispEdges"/>
  <path d="M564.5,1733L450.9,1785.5L1176.4,1808.5Z" fill="rgb(140,116,67)" shape-rendering="crispEdges"/>
  <path d="M167.2,1240.7L152.6,1486.9L411,1532.7Z" fill="rgb(155,126,63)" shape-rendering="crispEdges"/>
  <path d="M212.1,880.3L152.3,622.1L-122.7,815.6Z" fill="rgb(194,152,48)" shape-rendering="crispEdges"/>
  <path d="M-122.7,815.6L152.3,622.1L-12.4,409.4Z" fill="rgb(204,159,42)" shape-rendering="crispEdges"/>
  <path d="M-270.4,767.2L-122.7,815.6L-12.4,409.4Z" fill="rgb(202,157,44)" shape-rendering="crispEdges"/>
  <path d="M-184.7,1438.1L-24.5,1249.8L-349.6,1303.2Z" fill="rgb(167,134,59)" shape-rendering="crispEdges"/>
  <path d="M-83.8,977.3L-24.5,1249.8L167.2,1240.7Z" fill="rgb(175,139,56)" shape-rendering="crispEdges"/>
  <path d="M2921.4,909.5L3000.9,53.2L2915.9,566.7Z" fill="rgb(135,113,68)" shape-rendering="crispEdges"/>
  <path d="M2945.8,284.2L3000.9,53.2L2684.3,232.4Z" fill="rgb(151,124,64)" shape-rendering="crispEdges"/>
  <path d="M-177.3,1647.1L159.8,1636.5L152.6,1486.9Z" fill="rgb(160,129,61)" shape-rendering="crispEdges"/>
  <path d="M152.6,1486.9L159.8,1636.5L411,1532.7Z" fill="rgb(154,125,63)" shape-rendering="crispEdges"/>
  <path d="M2387.4,1738.8L2614.2,1803.2L2646.2,1528.6Z" fill="rgb(85,83,77)" shape-rendering="crispEdges"/>
  <path d="M2646.2,1528.6L2966.8,1396.8L2681.3,1220.1Z" fill="rgb(88,85,77)" shape-rendering="crispEdges"/>
  <path d="M1176.4,1808.5L2614.2,1803.2L1626.8,1756.3Z" fill="rgb(108,96,73)" shape-rendering="crispEdges"/>
  <path d="M3000.9,53.2L2860.3,-276.5L2690.8,-83Z" fill="rgb(161,130,61)" shape-rendering="crispEdges"/>
  <path d="M2713,-230.6L2860.3,-276.5L2410.4,-343.2Z" fill="rgb(161,130,61)" shape-rendering="crispEdges"/>
  <path d="M371.4,-347.1L74.1,-336L162,-53.2Z" fill="rgb(231,177,18)" shape-rendering="crispEdges"/>
  <path d="M162,-53.2L-141.6,-59.7L-47.5,284.2Z" fill="rgb(234,179,13)" shape-rendering="crispEdges"/>
  <path d="M2905.8,1795.1L2966.8,1396.8L2646.2,1528.6Z" fill="rgb(85,83,77)" shape-rendering="crispEdges"/>
  <path d="M2871.7,1143L2966.8,1396.8L2921.4,909.5Z" fill="rgb(101,92,75)" shape-rendering="crispEdges"/>
  <path d="M2921.4,909.5L2966.8,1396.8L3000.9,53.2Z" fill="rgb(120,104,71)" shape-rendering="crispEdges"/>
  <path d="M-122.7,815.6L-270.4,767.2L-83.8,977.3Z" fill="rgb(192,150,49)" shape-rendering="crispEdges"/>
  <path d="M-24.5,1249.8L-184.7,1438.1L152.6,1486.9Z" fill="rgb(164,132,60)" shape-rendering="crispEdges"/>
  <path d="M-343.5,431.1L-270.4,767.2L-12.4,409.4Z" fill="rgb(209,162,40)" shape-rendering="crispEdges"/>
  <path d="M-343.5,431.1L-12.4,409.4L-47.5,284.2Z" fill="rgb(217,167,33)" shape-rendering="crispEdges"/>
  <path d="M74.1,-336L-141.6,-59.7L162,-53.2Z" fill="rgb(236,180,8)" shape-rendering="crispEdges"/>
  <path d="M-141.6,-59.7L-267.4,140.4L-47.5,284.2Z" fill="rgb(231,177,19)" shape-rendering="crispEdges"/>
  <path d="M371.4,-347.1L-63.4,-333.4L74.1,-336Z" fill="rgb(233,178,14)" shape-rendering="crispEdges"/>
  <path d="M74.1,-336L-63.4,-333.4L-141.6,-59.7Z" fill="rgb(237,181,6)" shape-rendering="crispEdges"/>
  <path d="M-141.6,-59.7L-442.1,-46.8L-267.4,140.4Z" fill="rgb(236,181,7)" shape-rendering="crispEdges"/>
  <path d="M-267.4,140.4L-343.5,431.1L-47.5,284.2Z" fill="rgb(222,171,29)" shape-rendering="crispEdges"/>
  <path d="M-349.6,1303.2L-24.5,1249.8L-83.8,977.3Z" fill="rgb(175,139,56)" shape-rendering="crispEdges"/>
  <path d="M-419.2,1049.2L-83.8,977.3L-270.4,767.2Z" fill="rgb(188,148,51)" shape-rendering="crispEdges"/>
  <path d="M2614.2,1803.2L2905.8,1795.1L2646.2,1528.6Z" fill="rgb(85,83,77)" shape-rendering="crispEdges"/>
  <path d="M-63.4,-333.4L-249.9,-255.6L-141.6,-59.7Z" fill="rgb(237,181,6)" shape-rendering="crispEdges"/>
  <path d="M-267.4,140.4L-442.1,-46.8L-343.5,431.1Z" fill="rgb(228,175,23)" shape-rendering="crispEdges"/>
  <path d="M-343.5,431.1L-419.2,1049.2L-270.4,767.2Z" fill="rgb(197,154,46)" shape-rendering="crispEdges"/>
  <path d="M-286.7,1647.2L-177.3,1647.1L-345.6,1557Z" fill="rgb(161,130,61)" shape-rendering="crispEdges"/>
  <path d="M-184.7,1438.1L-177.3,1647.1L152.6,1486.9Z" fill="rgb(161,130,61)" shape-rendering="crispEdges"/>
  <path d="M159.8,1636.5L-177.3,1647.1L450.9,1785.5Z" fill="rgb(157,127,62)" shape-rendering="crispEdges"/>
  <path d="M-419.2,1049.2L-349.6,1303.2L-83.8,977.3Z" fill="rgb(178,141,55)" shape-rendering="crispEdges"/>
  <path d="M-249.9,-255.6L-442.1,-46.8L-141.6,-59.7Z" fill="rgb(237,181,6)" shape-rendering="crispEdges"/>
  <path d="M-343.5,431.1L-442.1,-46.8L-419.2,1049.2Z" fill="rgb(212,164,37)" shape-rendering="crispEdges"/>
  <path d="M-345.6,1557L-177.3,1647.1L-184.7,1438.1Z" fill="rgb(161,130,61)" shape-rendering="crispEdges"/>
  <path d="M-177.3,1647.1L-286.7,1647.2L450.9,1785.5Z" fill="rgb(161,130,61)" shape-rendering="crispEdges"/>
  <path d="M-345.6,1557L-184.7,1438.1L-349.6,1303.2Z" fill="rgb(162,130,61)" shape-rendering="crispEdges"/>
  <path d="M-419.2,1049.2L-345.6,1557L-349.6,1303.2Z" fill="rgb(168,135,59)" shape-rendering="crispEdges"/>
</svg>
